<?xml version="1.0" encoding="UTF-8"?>
<svg xmlns="http://www.w3.org/2000/svg" xmlns:xlink="http://www.w3.org/1999/xlink" width="360px" height="131px" viewBox="0 0 358 131" version="1.1">
<g id="surface1">
<path style=" stroke:none;fill-rule:nonzero;fill:rgb(53.72549%,94.509804%,62.745098%);fill-opacity:1;" d="M 32.296875 51.742188 L 14.402344 51.742188 L 14.402344 70.625 L 7.199219 70.625 L 7.199219 32.789062 L 13.527344 26.59375 L 6.328125 26.59375 L 6.328125 20.25 L 32.296875 20.25 L 32.296875 26.59375 L 14.402344 26.59375 L 14.402344 50.867188 L 19.710938 45.402344 L 32.296875 45.402344 Z M 66.160156 64.285156 L 59.90625 70.625 L 46.449219 70.625 L 40.191406 64.285156 L 40.191406 39.132812 L 46.449219 32.789062 L 59.90625 32.789062 L 66.160156 39.132812 Z M 59.03125 64.285156 L 59.03125 39.132812 L 47.394531 39.132812 L 47.394531 64.285156 Z M 103.308594 64.285156 L 97.054688 70.625 L 83.597656 70.625 L 77.34375 64.285156 L 77.34375 39.132812 L 83.597656 32.789062 L 97.054688 32.789062 L 103.308594 39.132812 Z M 96.179688 64.285156 L 96.179688 39.132812 L 84.542969 39.132812 L 84.542969 64.285156 Z M 133.621094 32.789062 L 127.292969 39.132812 L 122.785156 39.132812 L 122.785156 64.285156 L 131.730469 64.285156 L 131.730469 70.625 L 121.910156 70.625 L 115.585938 64.285156 L 115.585938 39.132812 L 106.636719 39.132812 L 112.964844 32.789062 L 115.585938 32.789062 L 115.585938 27.464844 L 122.785156 20.25 L 122.785156 32.789062 Z M 133.621094 32.789062 "/>
<path style=" stroke:none;fill-rule:nonzero;fill:rgb(82.352941%,87.45098%,24.313725%);fill-opacity:1;" d="M 129.414062 36.359375 L 177.566406 36.359375 L 177.566406 58.230469 L 129.414062 58.230469 Z M 171.039062 36.359375 L 219.191406 36.359375 L 219.191406 58.230469 L 171.039062 58.230469 Z M 212.664062 36.359375 L 240.011719 36.359375 L 240.011719 58.230469 L 212.664062 58.230469 Z M 233.476562 36.359375 L 281.628906 36.359375 L 281.628906 58.230469 L 233.476562 58.230469 Z M 275.101562 36.359375 L 323.253906 36.359375 L 323.253906 58.230469 L 275.101562 58.230469 Z M 275.101562 36.359375 "/>
<path style=" stroke:none;fill-rule:nonzero;fill:rgb(72.54902%,100%,78.431373%);fill-opacity:1;" d="M 32.296875 51.742188 L 14.402344 51.742188 L 14.402344 70.625 L 7.199219 70.625 L 7.199219 32.789062 L 13.527344 26.59375 L 6.328125 26.59375 L 6.328125 20.25 L 32.296875 20.25 L 32.296875 26.59375 L 14.402344 26.59375 L 14.402344 50.867188 L 19.710938 45.402344 L 32.296875 45.402344 Z M 66.160156 64.285156 L 59.90625 70.625 L 46.449219 70.625 L 40.191406 64.285156 L 40.191406 39.132812 L 46.449219 32.789062 L 59.90625 32.789062 L 66.160156 39.132812 Z M 59.03125 64.285156 L 59.03125 39.132812 L 47.394531 39.132812 L 47.394531 64.285156 Z M 103.308594 64.285156 L 97.054688 70.625 L 83.597656 70.625 L 77.34375 64.285156 L 77.34375 39.132812 L 83.597656 32.789062 L 97.054688 32.789062 L 103.308594 39.132812 Z M 96.179688 64.285156 L 96.179688 39.132812 L 84.542969 39.132812 L 84.542969 64.285156 Z M 133.621094 32.789062 L 127.292969 39.132812 L 122.785156 39.132812 L 122.785156 64.285156 L 131.730469 64.285156 L 131.730469 70.625 L 121.910156 70.625 L 115.585938 64.285156 L 115.585938 39.132812 L 106.636719 39.132812 L 112.964844 32.789062 L 115.585938 32.789062 L 115.585938 27.464844 L 122.785156 20.25 L 122.785156 32.789062 Z M 133.621094 32.789062 "/>
<path style=" stroke:none;fill-rule:nonzero;fill:rgb(82.352941%,87.45098%,24.313725%);fill-opacity:1;" d="M 129.414062 36.359375 L 177.566406 36.359375 L 177.566406 58.230469 L 129.414062 58.230469 Z M 171.039062 36.359375 L 219.191406 36.359375 L 219.191406 58.230469 L 171.039062 58.230469 Z M 212.664062 36.359375 L 240.011719 36.359375 L 240.011719 58.230469 L 212.664062 58.230469 Z M 233.476562 36.359375 L 281.628906 36.359375 L 281.628906 58.230469 L 233.476562 58.230469 Z M 275.101562 36.359375 L 323.253906 36.359375 L 323.253906 58.230469 L 275.101562 58.230469 Z M 275.101562 36.359375 "/>
<path style=" stroke:none;fill-rule:nonzero;fill:rgb(94.117647%,96.862745%,78.823529%);fill-opacity:1;" d="M 174.863281 71.054688 L 171.640625 71.054688 C 170.273438 71.054688 169.285156 70.707031 168.683594 70.011719 C 168.078125 69.300781 167.777344 68.367188 167.777344 67.207031 C 167.777344 64.644531 169.6875 63.363281 173.503906 63.363281 C 177.089844 63.363281 179.789062 63.898438 181.601562 64.964844 L 180.058594 66.140625 C 178.8125 65.570312 176.628906 65.285156 173.503906 65.285156 C 171.976562 65.285156 170.945312 65.457031 170.414062 65.792969 C 169.898438 66.132812 169.640625 66.605469 169.640625 67.207031 C 169.640625 67.8125 169.785156 68.285156 170.066406 68.625 C 170.351562 68.960938 170.875 69.132812 171.640625 69.132812 L 174.941406 69.132812 C 177.339844 69.132812 179.496094 69.539062 181.414062 70.359375 C 183.351562 71.179688 184.941406 72.300781 186.183594 73.722656 C 187.425781 75.128906 188.375 76.757812 189.03125 78.609375 C 189.691406 80.441406 190.019531 82.410156 190.019531 84.507812 C 190.019531 86.21875 189.777344 87.835938 189.300781 89.367188 C 188.820312 90.898438 188.09375 92.304688 187.117188 93.585938 C 186.15625 94.867188 184.992188 95.980469 183.625 96.925781 C 182.277344 97.847656 180.660156 98.570312 178.777344 99.085938 C 176.914062 99.621094 174.890625 99.886719 172.703125 99.886719 C 169.277344 99.886719 166.0625 99.363281 163.0625 98.3125 C 160.078125 97.28125 157.59375 95.828125 155.605469 93.960938 L 157.148438 92.8125 C 158.960938 94.449219 161.222656 95.722656 163.941406 96.628906 C 166.675781 97.519531 169.597656 97.964844 172.703125 97.964844 C 175.136719 97.964844 177.332031 97.617188 179.285156 96.925781 C 181.253906 96.210938 182.871094 95.242188 184.132812 94.015625 C 185.410156 92.785156 186.386719 91.363281 187.0625 89.742188 C 187.753906 88.121094 188.101562 86.378906 188.101562 84.507812 C 188.101562 82.035156 187.601562 79.800781 186.609375 77.808594 C 185.613281 75.796875 184.097656 74.167969 182.054688 72.921875 C 180.03125 71.675781 177.632812 71.054688 174.863281 71.054688 Z M 171.640625 72.976562 L 174.675781 72.976562 C 178.28125 72.976562 181.097656 74.078125 183.121094 76.285156 C 185.164062 78.492188 186.183594 81.234375 186.183594 84.507812 C 186.183594 87.835938 185 90.597656 182.640625 92.785156 C 180.277344 94.957031 176.964844 96.042969 172.703125 96.042969 C 169.863281 96.042969 167.207031 95.652344 164.742188 94.867188 C 162.273438 94.085938 160.222656 92.980469 158.585938 91.558594 L 160.078125 90.355469 C 161.535156 91.546875 163.363281 92.472656 165.566406 93.132812 C 167.785156 93.792969 170.164062 94.121094 172.703125 94.121094 C 176.453125 94.121094 179.308594 93.222656 181.28125 91.425781 C 183.269531 89.625 184.265625 87.320312 184.265625 84.507812 C 184.265625 81.734375 183.429688 79.4375 181.761719 77.621094 C 180.109375 75.804688 177.738281 74.898438 174.648438 74.898438 L 171.640625 74.898438 C 169.046875 74.898438 167.101562 74.1875 165.804688 72.761719 C 164.507812 71.339844 163.863281 69.488281 163.863281 67.207031 C 163.863281 64.929688 164.660156 63.078125 166.257812 61.65625 C 167.875 60.230469 170.289062 59.519531 173.503906 59.519531 C 175.757812 59.519531 177.855469 59.785156 179.789062 60.320312 C 181.726562 60.835938 183.324219 61.585938 184.585938 62.5625 L 183.066406 63.738281 C 180.847656 62.207031 177.660156 61.441406 173.503906 61.441406 C 170.824219 61.441406 168.859375 61.976562 167.617188 63.042969 C 166.390625 64.09375 165.777344 65.480469 165.777344 67.207031 C 165.777344 68.953125 166.234375 70.351562 167.136719 71.398438 C 168.0625 72.449219 169.5625 72.976562 171.640625 72.976562 Z M 171.640625 76.820312 L 174.570312 76.820312 C 177.164062 76.820312 179.105469 77.539062 180.402344 78.984375 C 181.699219 80.425781 182.347656 82.265625 182.347656 84.507812 C 182.347656 86.789062 181.539062 88.636719 179.921875 90.0625 C 178.324219 91.488281 175.917969 92.199219 172.703125 92.199219 C 170.449219 92.199219 168.34375 91.941406 166.390625 91.425781 C 164.457031 90.890625 162.859375 90.132812 161.597656 89.15625 L 163.113281 87.980469 C 165.335938 89.511719 168.53125 90.277344 172.703125 90.277344 C 175.386719 90.277344 177.339844 89.75 178.566406 88.699219 C 179.808594 87.632812 180.429688 86.234375 180.429688 84.507812 C 180.429688 82.78125 179.96875 81.394531 179.042969 80.34375 C 178.121094 79.277344 176.621094 78.742188 174.542969 78.742188 L 171.640625 78.742188 C 168 78.742188 165.148438 77.65625 163.089844 75.484375 C 161.046875 73.296875 160.027344 70.539062 160.027344 67.207031 C 160.027344 63.878906 161.207031 61.128906 163.570312 58.957031 C 165.929688 56.769531 169.242188 55.675781 173.503906 55.675781 C 176.34375 55.675781 178.992188 56.066406 181.441406 56.851562 C 183.910156 57.632812 185.960938 58.738281 187.59375 60.160156 L 186.101562 61.363281 C 184.648438 60.167969 182.816406 59.242188 180.617188 58.585938 C 178.414062 57.925781 176.042969 57.597656 173.503906 57.597656 C 169.757812 57.597656 166.890625 58.496094 164.902344 60.292969 C 162.929688 62.089844 161.941406 64.394531 161.941406 67.207031 C 161.941406 70.003906 162.777344 72.308594 164.445312 74.125 C 166.117188 75.921875 168.511719 76.820312 171.640625 76.820312 Z M 171.640625 80.664062 L 174.570312 80.664062 C 175.9375 80.664062 176.921875 81.019531 177.527344 81.734375 C 178.128906 82.445312 178.433594 83.371094 178.433594 84.507812 C 178.433594 87.074219 176.523438 88.355469 172.703125 88.355469 C 169.101562 88.355469 166.390625 87.820312 164.578125 86.75 L 166.125 85.578125 C 167.367188 86.148438 169.5625 86.429688 172.703125 86.429688 C 174.230469 86.429688 175.253906 86.261719 175.769531 85.925781 C 176.300781 85.585938 176.566406 85.113281 176.566406 84.507812 C 176.566406 83.921875 176.417969 83.460938 176.113281 83.121094 C 175.832031 82.765625 175.296875 82.585938 174.515625 82.585938 L 171.640625 82.585938 C 169.1875 82.585938 166.96875 82.1875 164.980469 81.386719 C 163.007812 80.585938 161.382812 79.480469 160.105469 78.074219 C 158.84375 76.667969 157.875 75.039062 157.203125 73.1875 C 156.527344 71.339844 156.191406 69.34375 156.191406 67.207031 C 156.191406 65.5 156.429688 63.878906 156.910156 62.351562 C 157.386719 60.820312 158.109375 59.414062 159.066406 58.132812 C 160.042969 56.851562 161.207031 55.746094 162.554688 54.820312 C 163.921875 53.878906 165.539062 53.148438 167.402344 52.632812 C 169.285156 52.097656 171.320312 51.832031 173.503906 51.832031 C 176.929688 51.832031 180.136719 52.355469 183.121094 53.40625 C 186.101562 54.4375 188.589844 55.886719 190.578125 57.757812 L 189.03125 58.90625 C 187.222656 57.269531 184.957031 56.003906 182.242188 55.113281 C 179.523438 54.207031 176.609375 53.753906 173.503906 53.753906 C 171.070312 53.753906 168.871094 54.109375 166.898438 54.820312 C 164.945312 55.515625 163.328125 56.476562 162.050781 57.703125 C 160.789062 58.933594 159.8125 60.355469 159.121094 61.976562 C 158.445312 63.59375 158.109375 65.339844 158.109375 67.207031 C 158.109375 69.71875 158.613281 71.980469 159.625 73.988281 C 160.636719 76 162.183594 77.621094 164.261719 78.847656 C 166.339844 80.058594 168.796875 80.664062 171.640625 80.664062 Z M 221.503906 79.007812 C 221.503906 76.730469 220.800781 74.96875 219.398438 73.722656 C 217.996094 72.476562 216.140625 71.855469 213.832031 71.855469 C 211.878906 71.855469 210.199219 72.53125 208.796875 73.882812 C 207.394531 75.234375 206.691406 76.855469 206.691406 78.742188 C 206.691406 79.808594 206.835938 80.769531 207.121094 81.625 C 207.402344 82.460938 207.785156 83.164062 208.265625 83.734375 C 208.761719 84.285156 209.347656 84.75 210.023438 85.125 C 210.699219 85.480469 211.398438 85.738281 212.125 85.898438 C 212.875 86.058594 213.664062 86.136719 214.496094 86.136719 C 216.523438 86.136719 218.371094 85.640625 220.039062 84.644531 L 220.039062 86.566406 C 218.316406 87.472656 216.460938 87.925781 214.472656 87.925781 C 213.191406 87.925781 211.984375 87.757812 210.847656 87.417969 C 209.730469 87.0625 208.710938 86.539062 207.785156 85.84375 C 206.863281 85.132812 206.125 84.171875 205.574219 82.960938 C 205.042969 81.734375 204.777344 80.328125 204.777344 78.742188 C 204.777344 76.285156 205.636719 74.203125 207.359375 72.496094 C 209.082031 70.785156 211.238281 69.933594 213.832031 69.933594 C 216.691406 69.933594 219 70.742188 220.757812 72.363281 C 222.535156 73.964844 223.421875 76.179688 223.421875 79.007812 L 223.421875 97.964844 L 221.503906 97.964844 Z M 227.257812 79.007812 L 227.257812 97.964844 L 225.339844 97.964844 L 225.339844 79.007812 C 225.339844 75.644531 224.265625 72.976562 222.117188 71 C 219.96875 69.007812 217.207031 68.007812 213.832031 68.007812 C 210.707031 68.007812 208.097656 69.050781 206 71.132812 C 203.90625 73.214844 202.859375 75.753906 202.859375 78.742188 C 202.859375 80.558594 203.167969 82.1875 203.789062 83.628906 C 204.429688 85.070312 205.289062 86.226562 206.375 87.097656 C 207.457031 87.972656 208.664062 88.636719 209.996094 89.101562 C 211.347656 89.546875 212.765625 89.769531 214.257812 89.769531 C 216.28125 89.769531 218.210938 89.296875 220.039062 88.355469 L 220.039062 90.382812 C 218.121094 91.183594 216.183594 91.585938 214.230469 91.585938 C 212.472656 91.585938 210.804688 91.316406 209.222656 90.785156 C 207.644531 90.230469 206.230469 89.441406 204.988281 88.40625 C 203.746094 87.355469 202.761719 86.003906 202.03125 84.347656 C 201.304688 82.675781 200.941406 80.808594 200.941406 78.742188 C 200.941406 75.234375 202.175781 72.253906 204.640625 69.796875 C 207.128906 67.324219 210.191406 66.085938 213.832031 66.085938 C 216.390625 66.085938 218.679688 66.613281 220.703125 67.664062 C 222.730469 68.695312 224.328125 70.199219 225.5 72.175781 C 226.671875 74.148438 227.257812 76.429688 227.257812 79.007812 Z M 231.09375 79.007812 L 231.09375 97.964844 L 229.175781 97.964844 L 229.175781 79.007812 C 229.175781 76.074219 228.5 73.472656 227.152344 71.214844 C 225.820312 68.933594 223.988281 67.191406 221.664062 65.980469 C 219.335938 64.769531 216.726562 64.164062 213.832031 64.164062 C 211.082031 64.164062 208.566406 64.824219 206.292969 66.140625 C 204.019531 67.441406 202.234375 69.203125 200.941406 71.425781 C 199.660156 73.652344 199.023438 76.089844 199.023438 78.742188 C 199.023438 81.019531 199.4375 83.101562 200.273438 84.988281 C 201.109375 86.859375 202.226562 88.398438 203.628906 89.609375 C 205.050781 90.820312 206.65625 91.761719 208.453125 92.4375 C 210.261719 93.097656 212.152344 93.425781 214.125 93.425781 C 216.132812 93.425781 218.101562 93.007812 220.039062 92.171875 L 220.039062 94.121094 C 218.015625 94.886719 216.023438 95.269531 214.070312 95.269531 C 211 95.269531 208.175781 94.574219 205.601562 93.1875 C 203.027344 91.796875 200.964844 89.832031 199.421875 87.285156 C 197.875 84.742188 197.105469 81.894531 197.105469 78.742188 C 197.105469 76.5 197.53125 74.363281 198.382812 72.335938 C 199.253906 70.304688 200.425781 68.550781 201.898438 67.074219 C 203.371094 65.597656 205.148438 64.421875 207.226562 63.550781 C 209.304688 62.679688 211.507812 62.242188 213.832031 62.242188 C 217.082031 62.242188 220.011719 62.9375 222.621094 64.324219 C 225.25 65.714844 227.320312 67.6875 228.828125 70.253906 C 230.339844 72.816406 231.09375 75.734375 231.09375 79.007812 Z M 234.929688 79.007812 L 234.929688 97.964844 L 233.011719 97.964844 L 233.011719 79.007812 C 233.011719 75.378906 232.167969 72.140625 230.480469 69.292969 C 228.792969 66.425781 226.492188 64.21875 223.582031 62.671875 C 220.667969 61.105469 217.417969 60.320312 213.832031 60.320312 C 210.386719 60.320312 207.234375 61.148438 204.375 62.804688 C 201.515625 64.457031 199.269531 66.703125 197.636719 69.53125 C 196.003906 72.34375 195.1875 75.414062 195.1875 78.742188 C 195.1875 80.933594 195.53125 83.015625 196.226562 84.988281 C 196.933594 86.949219 197.894531 88.664062 199.101562 90.144531 C 200.328125 91.601562 201.730469 92.867188 203.3125 93.933594 C 204.910156 95 206.621094 95.8125 208.453125 96.363281 C 210.296875 96.914062 212.171875 97.191406 214.070312 97.191406 C 216.167969 97.191406 218.15625 96.789062 220.039062 95.988281 L 220.039062 97.964844 C 218.066406 98.660156 216.042969 99.007812 213.964844 99.007812 C 211.816406 99.007812 209.722656 98.703125 207.679688 98.097656 C 205.65625 97.492188 203.773438 96.605469 202.03125 95.429688 C 200.308594 94.238281 198.792969 92.839844 197.476562 91.238281 C 196.164062 89.617188 195.132812 87.730469 194.386719 85.578125 C 193.640625 83.421875 193.269531 81.144531 193.269531 78.742188 C 193.269531 75.984375 193.785156 73.359375 194.8125 70.867188 C 195.859375 68.355469 197.28125 66.195312 199.074219 64.378906 C 200.886719 62.546875 203.070312 61.09375 205.628906 60.027344 C 208.203125 58.941406 210.9375 58.398438 213.832031 58.398438 C 216.78125 58.398438 219.550781 58.898438 222.144531 59.894531 C 224.734375 60.890625 226.972656 62.277344 228.855469 64.058594 C 230.738281 65.820312 232.21875 67.992188 233.304688 70.574219 C 234.386719 73.152344 234.929688 75.964844 234.929688 79.007812 Z M 239.671875 59.519531 L 241.585938 59.519531 L 241.585938 97.964844 L 239.671875 97.964844 Z M 251.175781 59.519531 L 253.09375 59.519531 L 253.09375 88.355469 L 267.238281 88.355469 L 267.238281 90.277344 L 253.09375 90.277344 L 253.09375 92.199219 L 267.238281 92.199219 L 267.238281 94.121094 L 253.09375 94.121094 L 253.09375 96.042969 L 267.238281 96.042969 L 267.238281 97.964844 L 251.175781 97.964844 Z M 247.339844 59.519531 L 249.257812 59.519531 L 249.257812 97.964844 L 247.339844 97.964844 Z M 243.507812 59.519531 L 245.421875 59.519531 L 245.421875 97.964844 L 243.507812 97.964844 Z M 286.125 73.324219 C 284.632812 74.816406 283.886719 76.625 283.886719 78.742188 C 283.886719 80.859375 284.632812 82.675781 286.125 84.1875 C 287.632812 85.683594 289.445312 86.429688 291.558594 86.429688 C 293.671875 86.429688 295.472656 85.683594 296.964844 84.1875 C 298.476562 82.675781 299.230469 80.859375 299.230469 78.742188 C 299.230469 76.625 298.476562 74.816406 296.964844 73.324219 C 295.472656 71.808594 293.671875 71.054688 291.558594 71.054688 C 289.445312 71.054688 287.632812 71.808594 286.125 73.324219 Z M 284.765625 85.550781 C 282.902344 83.664062 281.96875 81.394531 281.96875 78.742188 C 281.96875 76.089844 282.902344 73.828125 284.765625 71.960938 C 286.648438 70.074219 288.914062 69.132812 291.558594 69.132812 C 294.203125 69.132812 296.460938 70.074219 298.324219 71.960938 C 300.207031 73.828125 301.148438 76.089844 301.148438 78.742188 C 301.148438 81.394531 300.207031 83.664062 298.324219 85.550781 C 296.460938 87.417969 294.203125 88.355469 291.558594 88.355469 C 288.914062 88.355469 286.648438 87.417969 284.765625 85.550781 Z M 283.40625 70.597656 C 281.167969 72.859375 280.050781 75.574219 280.050781 78.742188 C 280.050781 81.910156 281.167969 84.625 283.40625 86.886719 C 285.664062 89.144531 288.378906 90.277344 291.558594 90.277344 C 294.738281 90.277344 297.445312 89.144531 299.683594 86.886719 C 301.9375 84.625 303.066406 81.910156 303.066406 78.742188 C 303.066406 75.574219 301.9375 72.859375 299.683594 70.597656 C 297.445312 68.339844 294.738281 67.207031 291.558594 67.207031 C 288.378906 67.207031 285.664062 68.339844 283.40625 70.597656 Z M 279.917969 85.496094 C 278.730469 83.433594 278.132812 81.179688 278.132812 78.742188 C 278.132812 76.304688 278.730469 74.050781 279.917969 71.988281 C 281.125 69.921875 282.757812 68.292969 284.820312 67.101562 C 286.878906 65.890625 289.125 65.285156 291.558594 65.285156 C 293.992188 65.285156 296.238281 65.890625 298.296875 67.101562 C 300.359375 68.292969 301.984375 69.921875 303.171875 71.988281 C 304.378906 74.050781 304.984375 76.304688 304.984375 78.742188 C 304.984375 81.179688 304.378906 83.433594 303.171875 85.496094 C 301.984375 87.5625 300.359375 89.199219 298.296875 90.410156 C 296.238281 91.601562 293.992188 92.199219 291.558594 92.199219 C 289.125 92.199219 286.878906 91.601562 284.820312 90.410156 C 282.757812 89.199219 281.125 87.5625 279.917969 85.496094 Z M 277.414062 72.789062 C 276.617188 74.675781 276.214844 76.660156 276.214844 78.742188 C 276.214844 80.824219 276.617188 82.816406 277.414062 84.722656 C 278.230469 86.609375 279.324219 88.246094 280.691406 89.636719 C 282.074219 91.003906 283.710938 92.101562 285.59375 92.917969 C 287.492188 93.71875 289.480469 94.121094 291.558594 94.121094 C 293.636719 94.121094 295.617188 93.71875 297.5 92.917969 C 299.398438 92.101562 301.03125 91.003906 302.398438 89.636719 C 303.785156 88.246094 304.878906 86.609375 305.675781 84.722656 C 306.492188 82.816406 306.902344 80.824219 306.902344 78.742188 C 306.902344 76.660156 306.492188 74.675781 305.675781 72.789062 C 304.878906 70.882812 303.785156 69.246094 302.398438 67.875 C 301.03125 66.488281 299.398438 65.394531 297.5 64.59375 C 295.617188 63.773438 293.636719 63.363281 291.558594 63.363281 C 289.480469 63.363281 287.492188 63.773438 285.59375 64.59375 C 283.710938 65.394531 282.074219 66.488281 280.691406 67.875 C 279.324219 69.246094 278.230469 70.882812 277.414062 72.789062 Z M 275.65625 85.46875 C 274.75 83.335938 274.296875 81.09375 274.296875 78.742188 C 274.296875 76.394531 274.75 74.148438 275.65625 72.015625 C 276.578125 69.878906 277.804688 68.046875 279.332031 66.515625 C 280.878906 64.964844 282.714844 63.738281 284.847656 62.832031 C 286.976562 61.90625 289.214844 61.441406 291.558594 61.441406 C 293.902344 61.441406 296.140625 61.90625 298.269531 62.832031 C 300.402344 63.738281 302.230469 64.964844 303.757812 66.515625 C 305.304688 68.046875 306.527344 69.878906 307.433594 72.015625 C 308.355469 74.148438 308.820312 76.394531 308.820312 78.742188 C 308.820312 81.09375 308.355469 83.335938 307.433594 85.46875 C 306.527344 87.605469 305.304688 89.449219 303.757812 90.996094 C 302.230469 92.527344 300.402344 93.753906 298.269531 94.679688 C 296.140625 95.589844 293.902344 96.042969 291.558594 96.042969 C 289.214844 96.042969 286.976562 95.589844 284.847656 94.679688 C 282.714844 93.753906 280.878906 92.527344 279.332031 90.996094 C 277.804688 89.449219 276.578125 87.605469 275.65625 85.46875 Z M 273.898438 71.292969 C 272.886719 73.660156 272.378906 76.144531 272.378906 78.742188 C 272.378906 81.339844 272.886719 83.832031 273.898438 86.21875 C 274.910156 88.585938 276.269531 90.632812 277.972656 92.359375 C 279.695312 94.066406 281.738281 95.429688 284.101562 96.445312 C 286.480469 97.457031 288.964844 97.964844 291.558594 97.964844 C 294.152344 97.964844 296.628906 97.457031 298.992188 96.445312 C 301.371094 95.429688 303.414062 94.066406 305.117188 92.359375 C 306.839844 90.632812 308.207031 88.585938 309.21875 86.21875 C 310.230469 83.832031 310.738281 81.339844 310.738281 78.742188 C 310.738281 76.144531 310.230469 73.660156 309.21875 71.292969 C 308.207031 68.910156 306.839844 66.863281 305.117188 65.152344 C 303.414062 63.425781 301.371094 62.054688 298.992188 61.042969 C 296.628906 60.027344 294.152344 59.519531 291.558594 59.519531 C 288.964844 59.519531 286.480469 60.027344 284.101562 61.042969 C 281.738281 62.054688 279.695312 63.425781 277.972656 65.152344 C 276.269531 66.863281 274.910156 68.910156 273.898438 71.292969 Z M 272.140625 86.964844 C 271.023438 84.347656 270.460938 81.609375 270.460938 78.742188 C 270.460938 75.875 271.023438 73.144531 272.140625 70.546875 C 273.257812 67.929688 274.761719 65.679688 276.640625 63.792969 C 278.523438 61.90625 280.761719 60.402344 283.355469 59.28125 C 285.964844 58.15625 288.699219 57.597656 291.558594 57.597656 C 294.417969 57.597656 297.144531 58.15625 299.734375 59.28125 C 302.347656 60.402344 304.59375 61.90625 306.476562 63.792969 C 308.355469 65.679688 309.859375 67.929688 310.976562 70.546875 C 312.09375 73.144531 312.65625 75.875 312.65625 78.742188 C 312.65625 81.609375 312.09375 84.347656 310.976562 86.964844 C 309.859375 89.5625 308.355469 91.808594 306.476562 93.695312 C 304.59375 95.582031 302.347656 97.085938 299.734375 98.207031 C 297.144531 99.328125 294.417969 99.886719 291.558594 99.886719 C 288.699219 99.886719 285.964844 99.328125 283.355469 98.207031 C 280.761719 97.085938 278.523438 95.582031 276.640625 93.695312 C 274.761719 91.808594 273.257812 89.5625 272.140625 86.964844 Z M 347.230469 82.453125 L 345.3125 78.957031 L 345.3125 59.519531 L 347.230469 59.519531 Z M 351.066406 89.101562 L 349.148438 85.84375 L 349.148438 59.519531 L 351.066406 59.519531 Z M 324.640625 75.03125 L 326.558594 78.527344 L 326.558594 97.964844 L 324.640625 97.964844 Z M 320.804688 68.117188 L 322.722656 71.640625 L 322.722656 97.964844 L 320.804688 97.964844 Z M 321.472656 59.519531 L 323.710938 59.519531 L 345.925781 97.964844 L 343.6875 97.964844 Z M 326 59.519531 L 328.265625 59.519531 L 350.453125 97.964844 L 348.164062 97.964844 Z M 330.503906 59.519531 L 332.738281 59.519531 L 352.984375 94.628906 L 352.984375 59.519531 L 354.902344 59.519531 L 354.902344 97.964844 L 352.636719 97.964844 Z M 318.886719 62.832031 L 318.886719 97.964844 L 316.96875 97.964844 L 316.96875 59.519531 L 319.261719 59.519531 L 341.398438 97.964844 L 339.183594 97.964844 Z M 318.886719 62.832031 "/>
</g>
</svg>
