<svg width="191" height="63" viewBox="0 0 191 63" fill="none" xmlns="http://www.w3.org/2000/svg">
<path d="M184.793 53.2264C186.229 39.7234 188.411 21.103 185.922 7.94644C143.389 7.00963 100.979 6.37378 58.414 7.25465C42.2621 7.58895 24.8544 10.4285 8.79057 8.68746C9.39076 20.7563 9.40911 32.8092 9.90769 44.8596C10.1119 49.7947 11.9716 55.0674 11.4143 60C59.0409 59.6599 106.706 55.541 154.365 57.0087C163.5 57.2901 172.733 55.9803 181.865 57.015C157.782 55.0847 133.157 56.7629 109.02 57.0516C92.8835 57.2447 76.743 54.9368 60.549 55.0496C45.2366 55.1563 29.9405 58.0438 14.6722 57.8538C10.9866 40.4947 6.18319 22.8265 3.81886 5.24366C13.5504 5.05055 23.2697 3.77062 32.9848 3.69513C84.6999 3.2932 136.348 3.97254 188 5.95288C187.911 21.5155 184.063 36.5365 183.065 51.9405C181.686 35.9288 185.138 19.8942 184.169 3.93231C177.808 2.53916 170.387 3.46658 163.91 3.36236C146.841 3.08745 129.949 2.76234 112.881 3.25508C91.4143 3.87464 70.051 4.8061 48.5875 5.71839C33.876 6.34351 17.4717 5.19174 3 8.49205C4.50057 25.4465 6.2818 42.4066 7.99283 59.3306" stroke="white" stroke-width="4.09971" stroke-miterlimit="1.5" stroke-linecap="round" stroke-linejoin="round"/>
<path d="M16 51.1547C17.9256 50.8325 19.8564 51.9963 21.8954 51.3359C29.0708 49.0114 33.28 41.6708 37.3851 33.2782C37.6787 34.789 38.3117 36.0078 38.6743 36.6699C40.5422 40.0833 42.9189 43.1221 45.6406 44.7483C52.9288 49.1024 58.9039 42.2523 62.3971 32.9367C62.3971 32.9367 62.842 34.0281 63.1068 34.525C63.6006 35.4529 64.1203 36.3501 64.6593 37.2159C66.6625 40.432 69.0371 42.9828 71.805 44.3577C79.0033 47.933 88.0169 42.7565 91.6064 32.294C91.6363 32.6629 93.3889 36.7375 93.5648 37.0669C96.0731 41.7578 99.07 45.1502 102.82 47.051C111.19 51.294 118.211 43.1729 121.922 32C122.058 33.4782 123.817 36.7585 123.996 37.0734C126.127 40.8339 128.47 44.2038 131.358 46.5364C138.679 52.4498 151.914 51.2988 154.444 35.9297C154.414 35.9208 155.107 37.8377 155.216 38.089C155.979 39.8441 156.873 41.467 157.846 42.9522C160.228 46.5847 163.175 49.3586 166.272 51.2739C172.132 54.8991 178.775 52.4989 183.844 47.0091C185.427 45.296 186.491 42.4818 188 40.8798" stroke="white" stroke-width="5" stroke-miterlimit="1.5" stroke-linecap="round" stroke-linejoin="round"/>
<path d="M15 25.3483C17.1596 24.9993 19.1354 24.1597 21.0093 23.1131C26.5828 19.9996 30.6168 14.7657 32.1788 8.85241C32.4653 9.73699 33.4416 12.1659 33.8029 12.8775C35.1279 15.4864 36.5944 17.9553 39.1051 19.7281C49.7284 27.2304 60.3892 16.0782 62.7874 7C62.8939 7.72359 64.3648 12.4328 64.7213 13.2079C66.5684 17.225 69.6698 21.4788 74.3331 22.8422C83.9626 25.6576 91.0391 17.3822 93.2454 9.66227C93.2454 9.66227 93.6323 11.1269 93.8853 11.842C94.3147 13.0553 94.8062 14.2424 95.4441 15.3746C97.3126 18.6921 100.154 21.7457 103.975 23.09C112.956 26.2493 123.114 19.5942 124.616 11.1385C124.616 11.1385 124.888 12.3024 125.123 12.8534C125.777 14.3935 126.629 15.8642 127.593 17.2522C129.858 20.5168 132.922 23.4622 136.763 25.0507C144.552 28.2725 158.795 22.3708 158.342 13.0589C158.339 13.0584 158.929 14.3583 158.973 14.4328C159.513 15.3263 160.151 16.1734 160.791 17.0044C162.345 19.021 164.016 20.9268 166.043 22.542C173.285 28.3128 179.629 27.7069 188 25.0648" stroke="white" stroke-width="5" stroke-miterlimit="1.5" stroke-linecap="round" stroke-linejoin="round"/>
</svg>
