<svg width="129" height="88" viewBox="0 0 129 88" fill="none" xmlns="http://www.w3.org/2000/svg">
<path d="M12.4231 4.9913C14.5089 3.9823 17.9362 3.12174 20.2434 3.12174C22.8764 3.12174 25.517 2 28.1446 2C29.2695 2 30.3944 2 31.5192 2C32.7163 2 33.1019 2.43813 34.0856 2.72705C35.1912 3.05179 36.2203 3.59323 37.339 3.84879C38.0917 4.02074 39.6944 3.49565 40.6126 3.49565C41.7532 3.49565 42.6692 3.42059 43.7044 3.95266C44.6576 4.44259 45.1403 4.9913 46.2506 4.9913C48.5163 4.9913 50.2865 4.42954 52.2522 5.55217C55.4911 7.40193 56.0714 13.6565 56.0714 16.9565C56.0714 19.5425 55.5748 20.9096 54.6165 23.1261C54.1177 24.2798 52.2657 27.6347 50.9791 27.8C48.1399 28.1648 42.3165 31.6966 39.5214 29.4618C37.6418 27.959 39.6353 24.5425 41.522 24.4348C43.5266 24.3203 45.8667 21.6298 46.2708 19.7609C47.2417 15.2694 46.6143 11.0335 46.6143 6.48695" stroke="#FACD98" stroke-width="3" stroke-linecap="round"/>
<path d="M36.7935 4.24353C36.7935 6.1127 37.6319 8.52518 36.6116 10.4131C36.1214 11.3201 36.7719 12.4973 36.1469 13.3005C35.7838 13.7671 35.7388 15.9448 35.7023 16.5827C35.599 18.3873 33.5832 19.9444 32.5903 21.2566C30.5309 23.9785 32.37 25.1826 35.1567 25.1826C36.7687 25.1826 39.8491 26.1709 40.8754 24.0609C41.6382 22.4928 42.6611 20.2726 43.8864 19.0131C47.0873 15.7226 45.5232 10.9015 45.5232 6.86092" stroke="#FACD98" stroke-width="3" stroke-linecap="round"/>
<path d="M24.79 8.35657C24.79 10.0931 25.9471 11.1094 26.6087 12.4696" stroke="#FACD98" stroke-width="3" stroke-linecap="round"/>
<path d="M28.7913 8.35657C28.6923 9.27164 27.9264 10.2529 27.6798 11.1401C27.4424 11.9944 27.025 13.0497 26.9726 13.9653C26.8887 15.4303 23.1674 17.0326 22.0823 17.3512C20.5151 17.8115 22.0948 19.2573 22.5269 19.657C23.1924 20.2727 24.7857 20.6957 25.6995 20.6957C27.9332 20.6957 30.4861 20.9463 32.4286 19.9479" stroke="#FACD98" stroke-width="3" stroke-linecap="round"/>
<path d="M12.4231 29.6696C14.038 29.8771 15.7354 30.9827 17.5154 31.186C19.3733 31.3982 21.1389 32.0386 22.9714 32.3077C25.7972 32.7227 28.9931 33.45 31.0545 35.5691C32.8715 37.4369 32.4286 40.3618 32.4286 42.9435C32.4286 45.7892 32.7923 48.691 32.7923 51.3565C32.7923 52.4125 32.4684 54.3805 33.3379 55.0956C34.1924 55.7983 35.9024 55.0101 36.9551 54.7009C39.5274 53.9454 41.0268 49.791 41.9665 47.6174C43.1979 44.7693 42.2495 41.7459 42.2495 38.8096C42.2495 37.6699 42.6523 35.3285 41.9665 34.4473C41.3964 33.7147 41.1582 30.9921 41.1582 30.0435" stroke="#FACD98" stroke-width="3" stroke-linecap="round"/>
<path d="M11.6957 5.36523C9.03445 5.7072 6.37996 7.82018 3.69355 7.98262C0.367755 8.18373 2.96608 14.1433 2.96608 16.3957C2.96608 18.0783 2.96608 19.7609 2.96608 21.4435C2.96608 22.8314 3.02988 25.721 3.89562 26.8652C4.56909 27.7553 7.08366 28.4889 8.05838 28.5478C9.41062 28.6296 10.6827 29.6696 12.0595 29.6696" stroke="#FACD98" stroke-width="3" stroke-linecap="round"/>
<path d="M55.7078 12.0958C60.7043 12.0958 66.3166 13.3283 71.3485 12.1788C74.4779 11.464 78.5984 13.1457 81.5331 11.8049C82.8299 11.2124 84.7007 12.0161 86.0798 11.7011C87.4095 11.3973 88.9475 10.974 90.2627 10.974C91.9283 10.974 98.4425 9.21561 98.6287 12.4697C98.734 14.3107 98.9983 15.0734 98.2649 16.7697C97.5734 18.369 95.2886 19.1923 93.8193 19.6571C88.3166 21.3976 81.9105 22.9392 76.1579 22.9392C68.5683 22.9392 61.1212 23.3131 53.5254 23.3131" stroke="#FACD98" stroke-width="3" stroke-linecap="round"/>
<path d="M105.176 10.6C102.187 10.216 98.2648 9.26236 98.2648 13.7782C98.2648 16.8575 97.901 20.069 97.901 23.313C97.901 26.5625 98.9922 29.9506 98.9922 33.2217C98.9922 36.0495 98.5492 39.8551 97.4565 42.3826C96.2124 45.26 94.1679 47.4585 91.1517 48.3444C89.4146 48.8546 87.4697 48.7331 85.7159 49.1338C84.5507 49.3999 81.956 49.0642 81.0883 49.7777C80.3619 50.3751 77.3909 49.8608 76.4406 49.8608C74.5613 49.8608 72.682 49.8608 70.8027 49.8608C69.2131 49.8608 67.5574 50.2347 66.0741 50.2347C64.7406 50.2347 62.3791 49.7625 61.1637 50.3178C58.6777 51.4536 54.2663 50.6086 51.5247 50.6086C48.2657 50.6086 45.0588 50.2347 41.8857 50.2347C38.7484 50.2347 36.0323 50.0726 34.4291 53.0391C32.9739 55.7317 32.1686 59.9208 35.3384 61.369C37.147 62.1953 39.924 61.826 41.8857 61.826C44.5531 61.826 47.2205 61.826 49.8879 61.826C55.66 61.826 61.5745 60.7043 67.3472 60.7043C68.8285 60.7043 76.2882 59.7606 77.1681 60.8912C77.7562 61.647 78.3335 61.2016 78.2593 62.5738C78.2403 62.9252 77.5985 64.2855 77.3297 64.4434C76.2095 65.1015 75.3562 66.1225 74.2582 66.6869" stroke="#FACD98" stroke-width="3" stroke-linecap="round"/>
<path d="M81.8967 59.9564C80.8908 59.9564 79.1014 60.4686 78.623 61.4521" stroke="#FACD98" stroke-width="3" stroke-linecap="round"/>
<path d="M74.2583 67.8086C74.4239 69.1705 81.6883 70.426 82.988 70.426" stroke="#FACD98" stroke-width="3" stroke-linecap="round"/>
<path d="M127 51.3564C127 53.467 126.516 57.3063 125.262 58.9178C125.163 59.0454 124.828 60.5259 124.818 60.7043C124.774 61.4725 124.278 61.9876 124.11 62.7608C123.852 63.9573 123.432 65.4974 122.918 66.6869C121.784 69.3103 120.3 71.6541 119.079 74.1651C117.43 77.5543 116.105 78.935 112.814 80.4385C111.287 81.1365 108.512 80.8956 106.813 80.8956C104.768 80.8956 102.868 81.2695 100.811 81.2695C97.2912 81.2695 93.7778 82.0173 90.2627 82.0173C84.0163 82.0173 78.0086 82.3912 71.7122 82.3912" stroke="#FACD98" stroke-width="3" stroke-linecap="round"/>
<path d="M73.8945 68.1826C69.6102 68.7331 70.0458 79.3395 71.3483 82.0174" stroke="#FACD98" stroke-width="3" stroke-linecap="round"/>
<path d="M71.3484 73.7913C71.4283 74.4487 75.4049 74.857 76.077 74.9338C78.4006 75.1992 80.6351 75.2869 82.9879 75.2869" stroke="#FACD98" stroke-width="3" stroke-linecap="round"/>
<path d="M70.2571 78.2782C72.4856 78.2782 74.5552 78.6521 76.8043 78.6521C78.8063 78.6521 80.2649 78.6521 82.2604 78.6521" stroke="#FACD98" stroke-width="3" stroke-linecap="round"/>
<path d="M70.9846 82.3912C71.2479 84.5561 77.3069 85.3935 78.8049 85.7357C81.7688 86.4127 86.6713 85.8725 88.444 83.1391" stroke="#FACD98" stroke-width="3" stroke-linecap="round"/>
<path d="M98.6287 10.2261C98.8617 8.06992 99.2059 4.68022 100.811 3.12177C101.549 2.40544 103.087 1.70309 103.903 2.37395C104.862 3.16295 104.624 5.13566 105.358 5.73916C105.784 6.0894 105.903 8.49303 105.903 9.10438C105.903 9.99218 105.744 12.264 106.449 12.8435C107.132 13.405 107.067 15.554 107.641 16.2918C108.319 17.1623 108.071 18.9247 108.894 19.8648C110.43 21.6193 110.771 24.8979 111.44 27.1353C112.689 31.3077 115.126 34.2897 118.068 37.314C119.92 39.2173 124.192 41.6365 124.797 44.4391C125.257 46.5667 126.636 48.8113 126.636 50.9826" stroke="#FACD98" stroke-width="3" stroke-linecap="round"/>
<path d="M101.031 8.67529C101.031 9.29741 100.911 9.97014 100.911 10.5278C100.911 10.8685 101.108 12.2469 100.884 12.4764C100.806 12.5573 100.911 10.9014 100.911 10.7748C100.911 10.3676 100.907 9.35644 101.272 9.1693" stroke="#33AA30" stroke-width="3" stroke-linecap="round"/>
<path d="M102.113 8.18127C102.113 9.03432 102.142 9.94698 102.326 10.7748C102.47 11.42 102.402 12.2953 102.74 12.8743C102.824 13.0183 103.074 11.1808 103.074 10.8983C103.074 10.5278 103.074 10.1573 103.074 9.78679C103.074 9.49862 103.074 9.21045 103.074 8.92228C103.074 8.46125 103.181 9.25583 103.221 9.38884C103.383 9.93187 103.43 10.5181 103.648 11.0218C103.763 11.2893 103.646 11.6045 103.768 11.8863C103.819 12.004 103.795 12.7159 103.795 12.2568C103.795 11.0542 103.674 9.89484 103.674 8.67528" stroke="#33AA30" stroke-width="3" stroke-linecap="round"/>
<path d="M36.5161 48.5662C36.9444 49.0615 36.9008 50.394 36.99 51.0362C37.0963 51.8011 37.147 52.6125 37.2303 53.3827C37.291 53.9446 37.4772 54.4953 37.4772 55.05C37.4772 55.4568 38.3182 57.0425 38.3182 56.038C38.3182 55.2168 38.4384 54.4127 38.4384 53.568C38.4384 52.6523 39.4555 53.0905 39.7332 53.6297C39.9472 54.0452 41.7164 52.6417 40.147 52.6417C39.7376 52.6417 39.3283 52.6417 38.9189 52.6417C38.6875 52.6417 38.4561 52.6417 38.2248 52.6417C38.2015 52.6417 38.9273 52.6517 39.1325 52.6143C39.7643 52.4988 41.2469 52.2611 41.8023 52.6417" stroke="#33AA30" stroke-width="3" stroke-linecap="round"/>
<path d="M35.8008 49.9677C35.4297 50.0153 35.8762 53.8153 35.8762 54.4618C35.8762 54.9638 36.0269 56.4618 36.0269 55.9598C36.0269 55.1459 36.0456 54.3933 35.8762 53.6094C35.7765 53.1485 35.5743 52.7268 35.5035 52.2535C35.4746 52.0603 35.4239 51.8687 35.4239 51.6723C35.4239 51.3993 35.4976 52.159 35.5161 52.2319C35.8057 53.3752 36.1023 54.5586 36.1023 55.7403C36.1023 56.1139 36.1023 56.3652 36.1023 55.779C36.1023 55.0359 36.0496 54.2568 35.8929 53.532C35.7226 52.744 35.5222 51.7747 35.4993 50.975C35.4965 50.8762 35.3579 50.3462 35.3486 50.51C35.3402 50.6566 35.425 51.1135 35.3109 51.2074C35.2284 51.2752 35.1978 51.6735 35.1978 51.7885C35.1978 52.207 35.1224 51.4952 35.1224 51.5948C35.1224 51.9138 35.1527 51.273 35.1057 51.2246C35.0639 51.1817 34.9717 51.7766 34.9717 51.866C34.9717 52.356 35.0471 52.8728 35.0471 53.3382C35.0471 54.3015 35.2732 55.3006 35.2732 56.287C35.2732 56.5918 35.1964 57.7584 35.4993 57.9314C36.0666 58.2553 36.9231 58.1539 37.5387 58.2198C38.1773 58.2882 38.8614 58.2069 39.4942 58.1036C39.8171 58.0508 40.4676 58.0329 40.7003 57.7936" stroke="#33AA30" stroke-width="3" stroke-linecap="round"/>
<path d="M38.4199 52.6237C38.4199 51.3955 37.9293 50.2083 37.8645 49.0075C37.8429 48.609 37.429 48.0875 37.7719 48.722C38.0301 49.1999 37.8839 49.8613 38.0907 50.3398C38.2469 50.701 38.6476 53.1101 39.0165 53.1101C39.283 53.1101 39.1605 50.4787 39.1605 50.0543C39.1605 49.6326 39.3456 47.9751 39.3456 48.3414C39.3456 49.207 39.3432 49.9953 39.5205 50.8156C39.6628 51.4739 39.4003 52.5164 39.9936 53.0044C40.5535 53.4648 41.1755 53.956 41.9377 53.956" stroke="#33AA30" stroke-width="3" stroke-linecap="round"/>
<path d="M42.1229 49.5786C41.1014 49.7099 40.8013 51.3441 40.4565 52.0529" stroke="#33AA30" stroke-width="3" stroke-linecap="round"/>
<path d="M42.6781 49.5786C42.6781 50.1568 42.6401 51.1904 42.4827 51.7568C42.3732 52.151 42.1754 52.638 42.2976 51.9471C42.3802 51.4797 42.5635 51.0855 42.6884 50.636C42.8189 50.1667 43.2176 49.5045 43.5216 49.1028C44.4071 47.9325 43.981 49.5349 43.6965 49.7689C43.4683 49.9565 43.2504 51.3791 43.2336 51.6722C43.1889 52.454 43.0023 53.15 43.0484 53.9561C43.0601 54.1597 43.2786 54.7457 43.4187 54.9078C43.8305 55.3839 43.6039 54.7696 43.6039 54.2945C43.6039 53.3569 43.6039 52.4194 43.6039 51.4819C43.6039 50.7272 43.7694 49.7196 44.2519 49.1133C44.4998 48.8019 44.7148 48.2159 44.7148 48.923C44.7148 49.3953 44.7148 49.8676 44.7148 50.3399C44.7148 51.1964 44.7148 52.0528 44.7148 52.9093C44.7148 53.7448 45.6833 54.8406 45.1776 53.3851C44.9561 52.7476 44.007 49.0952 45.4554 49.0076C46.0933 48.969 46.8133 48.627 47.492 48.627C49.2817 48.627 51.0715 48.627 52.8613 48.627" stroke="#33AA30" stroke-width="3" stroke-linecap="round"/>
<path d="M53.0826 50.7233C51.0216 50.7233 48.9416 50.8307 46.8615 50.8307C45.1931 50.8307 43.591 51.1636 41.9532 51.4697C41.0412 51.6401 40.1447 52.1036 39.258 52.4191C38.466 52.7009 37.6501 52.8844 36.8764 53.2192C36.115 53.5488 35.6016 53.8012 35.0177 54.4015C34.5347 54.898 33.9673 55.1807 33.7397 55.8824" stroke="#FACD98" stroke-width="3" stroke-linecap="round"/>
<path d="M42.5618 46.7384C42.5618 47.465 42.5618 48.1915 42.5618 48.918C42.5618 49.2813 42.5618 49.6446 42.5618 50.0079C42.5618 50.3618 42.3386 50.6598 42.3386 50.983" stroke="#FACD98" stroke-width="3" stroke-linecap="round"/>
<path d="M40.1104 46.0671C40.1861 46.7682 40.4294 47.3068 40.4294 48.0349C40.4294 48.3463 40.3496 48.6642 40.3496 48.9369C40.3496 49.6859 40.3851 47.4315 40.2743 46.6911C40.2165 46.3048 40.3496 45.9821 40.3496 45.6161C40.3496 45.2342 40.3496 46.1841 40.3496 46.3541C40.3496 47.3235 40.4294 48.2889 40.4294 49.2648" stroke="#33AA30" stroke-width="3" stroke-linecap="round"/>
<path d="M42.5504 46.0968V46.1301V46.1633V46.1966H42.5181L42.5504 46.1633V46.1301V46.0968V46.0635V46.0303" stroke="#FACD98" stroke-width="3" stroke-linecap="round"/>
<path d="M40.3179 45.0324C40.3179 45.6959 40.3503 46.36 40.3503 47.0281C40.3503 47.1383 40.4159 47.6593 40.3341 47.7265C40.305 47.7505 40.3158 47.8242 40.3179 47.8596C40.3202 47.8973 40.3505 47.6587 40.3575 47.6194C40.3819 47.4815 40.3826 47.3512 40.3826 47.211C40.3826 46.7108 40.415 46.207 40.415 45.7161C40.415 45.2794 40.3826 44.815 40.3826 44.3672" stroke="#33AA30" stroke-width="3"/>
</svg>
